Genre:Action/Drama/Family/Sport
Language:English
IMDb:http://www.imdb.com/title/tt1155076/
Source:DVD5.RUS
Subtitles: ROMANA
Sample:yes
Encoder: Tony2
..............................................
General
Complete name : The Karate Kid (2010) DVDRIP.H264.FEEL-FREE
Format : MPEG-4
Format profile : Base Media
Codec ID : isom
File size : 1.47 GiB
Duration : 2h 7mn
Overall bit rate : 1 651 Kbps
..............................................
Video
ID : 1
Format : AVC
Format/Info : Advanced Video Codec
Format profile : Baseline@L5.1
Format settings, CABAC : No
Format settings, ReFrames : 1 frame
Codec ID : avc1
Codec ID/Info : Advanced Video Coding
Duration : 2h 7mn
Bit rate mode : Variable
Bit rate : 1 518 Kbps
Width : 720 pixels
Height : 304 pixels
Display aspect ratio : 2.35:1
Frame rate mode : Constant
Frame rate : 25.000 fps
Resolution : 24 bits
Colorimetry : 4:2:0
Scan type : Progressive
Bits/(Pixel*Frame) : 0.277
Stream size : 1.35 GiB (92%)
............................................
Audio
ID : 2
Format : AAC
Format/Info : Advanced Audio Codec
Format version : Version 4
Format profile : LC
Format settings, SBR : No
Codec ID : 40
Duration : 2h 7mn
Bit rate mode : Variable
Bit rate : 128 Kbps
Channel(s) : 2 channels
Channel positions : L R
Sampling rate : 48.0 KHz
Resolution : 16 bits
Stream size : 117 MiB (8%)
..........................................
Plot:
Work causes a single mother to move to China with her young son; in his new home, the boy embraces kung fu, taught to him by a master
...................................................